<?xml version="1.0" encoding="UTF-8" standalone="no"?>
<!-- Created with Inkscape (http://www.inkscape.org/) -->

<svg
   xmlns:dc="http://purl.org/dc/elements/1.1/"
   xmlns:cc="http://creativecommons.org/ns#"
   xmlns:rdf="http://www.w3.org/1999/02/22-rdf-syntax-ns#"
   xmlns:svg="http://www.w3.org/2000/svg"
   xmlns="http://www.w3.org/2000/svg"
   xmlns:sodipodi="http://sodipodi.sourceforge.net/DTD/sodipodi-0.dtd"
   xmlns:inkscape="http://www.inkscape.org/namespaces/inkscape"
   id="svg3336"
   version="1.1"
   inkscape:version="0.91 r13725"
   xml:space="preserve"
   width="71.25"
   height="71.25"
   viewBox="0 0 71.25 71.25"
   sodipodi:docname="OneBusAway-AppIcon-Border.svg"
   inkscape:export-filename="C:\Users\Kevin\Linux\pebble-dev\onebusaway\resources\images\icon.png"
   inkscape:export-xdpi="31.578947"
   inkscape:export-ydpi="31.578947"><metadata
     id="metadata3342"><rdf:RDF><cc:Work
         rdf:about=""><dc:format>image/svg+xml</dc:format><dc:type
           rdf:resource="http://purl.org/dc/dcmitype/StillImage" /><dc:title></dc:title></cc:Work></rdf:RDF></metadata><defs
     id="defs3340"><clipPath
       clipPathUnits="userSpaceOnUse"
       id="clipPath3350"><path
         d="M 10,57 C 4.477,57 0,52.523 0,47 L 0,47 0,10 C 0,4.477 4.477,0 10,0 l 0,0 37,0 c 5.523,0 10,4.477 10,10 l 0,0 0,37 c 0,5.523 -4.477,10 -10,10 l 0,0 -37,0 z"
         id="path3352"
         inkscape:connector-curvature="0" /></clipPath></defs><sodipodi:namedview
     pagecolor="#ffffff"
     bordercolor="#666666"
     borderopacity="1"
     objecttolerance="10"
     gridtolerance="10"
     guidetolerance="10"
     inkscape:pageopacity="0"
     inkscape:pageshadow="2"
     inkscape:window-width="1829"
     inkscape:window-height="966"
     id="namedview3338"
     showgrid="false"
     inkscape:zoom="22.603702"
     inkscape:cx="17.21215"
     inkscape:cy="30.162082"
     inkscape:window-x="-8"
     inkscape:window-y="-8"
     inkscape:window-maximized="1"
     inkscape:current-layer="g3344" /><g
     id="g3344"
     inkscape:groupmode="layer"
     inkscape:label="OneBusAway-AppIcon"
     transform="matrix(1.25,0,0,-1.25,0,71.25)"><g
       id="g3346"
       inkscape:export-filename="C:\Users\Kevin\Linux\pebble-dev\onebusaway\resources\images\g3346.png"
       inkscape:export-xdpi="31.578947"
       inkscape:export-ydpi="31.578947"><g
         id="g3348"
         clip-path="url(#clipPath3350)"><path
           d="M 57,0 0,0 0,57 57,57 57,0 Z"
           style="fill:#78aa36;fill-opacity:1;fill-rule:nonzero;stroke:none"
           id="path3354"
           inkscape:connector-curvature="0" /><g
           id="g3356"
           transform="translate(24.3032,3.3682)"><path
             d="m 0,0 c 0,-0.929 -0.661,-1.678 -1.479,-1.678 l -1.88,0 c -0.815,0 -1.479,0.749 -1.479,1.678 0,0.926 0.664,1.678 1.479,1.678 l 1.88,0 C -0.661,1.678 0,0.926 0,0"
             style="fill:#000000;fill-opacity:1;fill-rule:nonzero;stroke:none"
             id="path3358"
             inkscape:connector-curvature="0" /></g><g
           id="g3360"
           transform="translate(24.3032,3.3682)"><path
             d="m 0,0 c 0,-0.929 -0.661,-1.678 -1.479,-1.678 l -1.88,0 c -0.815,0 -1.479,0.749 -1.479,1.678 0,0.926 0.664,1.678 1.479,1.678 l 1.88,0 C -0.661,1.678 0,0.926 0,0 Z"
             style="fill:none;stroke:#000000;stroke-width:1;stroke-linecap:butt;stroke-linejoin:miter;stroke-miterlimit:4;stroke-dasharray:none;stroke-opacity:1"
             id="path3362"
             inkscape:connector-curvature="0" /></g><g
           id="g3364"
           transform="translate(38.5371,18.2061)"><path
             d="m 0,0 c 0,4.85 -1.174,5.965 -4.511,5.965 l -11.084,0 c -2.678,0 -4.133,-0.904 -4.133,-5.965 l 0,-9.271 c 0,-5.543 -0.8,-5.112 4.133,-5.112 l 11.084,0 C 0.75,-14.171 0.095,-14.814 0,-9.271 L 0,0 Z"
             style="fill:#000000;fill-opacity:1;fill-rule:nonzero;stroke:none"
             id="path3366"
             inkscape:connector-curvature="0" /></g><g
           id="g3368"
           transform="translate(38.5371,18.2061)"><path
             d="m 0,0 c 0,4.85 -1.174,5.965 -4.511,5.965 l -11.084,0 c -2.678,0 -4.133,-0.904 -4.133,-5.965 l 0,-9.271 c 0,-5.543 -0.8,-5.112 4.133,-5.112 l 11.084,0 C 0.75,-14.171 0.095,-14.814 0,-9.271 L 0,0 Z"
             style="fill:none;stroke:#000000;stroke-width:1;stroke-linecap:butt;stroke-linejoin:miter;stroke-miterlimit:4;stroke-dasharray:none;stroke-opacity:1"
             id="path3370"
             inkscape:connector-curvature="0" /></g><g
           id="g3372"
           transform="translate(37.9746,3.3135)"><path
             d="m 0,0 c 0,-0.929 -0.665,-1.679 -1.483,-1.679 l -1.876,0 c -0.818,0 -1.479,0.75 -1.479,1.679 0,0.925 0.661,1.679 1.479,1.679 l 1.876,0 C -0.665,1.679 0,0.925 0,0"
             style="fill:#000000;fill-opacity:1;fill-rule:nonzero;stroke:none"
             id="path3374"
             inkscape:connector-curvature="0" /></g><g
           id="g3376"
           transform="translate(37.9746,3.3135)"><path
             d="m 0,0 c 0,-0.929 -0.665,-1.679 -1.483,-1.679 l -1.876,0 c -0.818,0 -1.479,0.75 -1.479,1.679 0,0.925 0.661,1.679 1.479,1.679 l 1.876,0 C -0.665,1.679 0,0.925 0,0 Z"
             style="fill:none;stroke:#000000;stroke-width:1;stroke-linecap:butt;stroke-linejoin:miter;stroke-miterlimit:4;stroke-dasharray:none;stroke-opacity:1"
             id="path3378"
             inkscape:connector-curvature="0" /></g><path
           d="m 34.826,21.617 -12.636,0 0,1.388 12.636,0 0,-1.388 z"
           style="fill:#ffffff;fill-opacity:1;fill-rule:nonzero;stroke:none"
           id="path3380"
           inkscape:connector-curvature="0" /><path
           d="m 27.965,20.445 -8.313,0 0,-7.727 8.313,0 0,7.727 z"
           style="fill:#ffffff;fill-opacity:1;fill-rule:nonzero;stroke:none"
           id="path3382"
           inkscape:connector-curvature="0" /><path
           d="m 37.27,20.445 -8.129,0 0,-7.778 8.129,0 0,7.778 z"
           style="fill:#ffffff;fill-opacity:1;fill-rule:nonzero;stroke:none"
           id="path3384"
           inkscape:connector-curvature="0" /><path
           d="m 24.725,9.683 -5.023,0 0,-2.449 5.023,0 0,2.449 z"
           style="fill:#ffffff;fill-opacity:1;fill-rule:nonzero;stroke:none"
           id="path3386"
           inkscape:connector-curvature="0" /><path
           d="m 37.458,9.734 -4.839,0 0,-2.289 4.839,0 0,2.289 z"
           style="fill:#ffffff;fill-opacity:1;fill-rule:nonzero;stroke:none"
           id="path3388"
           inkscape:connector-curvature="0" /><g
           id="g3390"
           transform="translate(4.4849,5.9902)"><path
             d="m 9.634,-1.974 2.409,0.556 -3.532,6.094 c 1.717,0.22 3.319,1.004 3.319,3.846 l 0,6.656 c 0,0.337 -0.018,1.646 -1.291,2.078 l 0,2.441 c 0,0.93 -1.813,2.221 -2.221,2.221 L 4.173,22.412 0.026,21.918 c -0.407,0 -2.22,-1.261 -2.22,-2.221 l 0,-2.439 c -1.286,-0.43 -1.291,-1.741 -1.291,-2.08 l 0,-6.656 c 0,-3.038 1.447,-3.731 3.535,-3.888 l -3.508,-6.052 2.409,-0.556 3.4269429,6.4407465 3.8271141,0 z"
             style="fill:#000000;fill-opacity:1;fill-rule:nonzero;stroke:none"
             id="path3392"
             inkscape:connector-curvature="0"
             sodipodi:nodetypes="cccsscscccscsscccccc" /></g><g
           id="g3394"
           transform="translate(10.0376,20.916)"><path
             d="m 0,0 c 0,-0.764 -0.618,-1.38 -1.38,-1.38 -0.762,0 -1.378,0.616 -1.378,1.38 0,0.76 0.616,1.379 1.378,1.379 C -0.618,1.379 0,0.76 0,0"
             style="fill:#ffffff;fill-opacity:1;fill-rule:nonzero;stroke:none"
             id="path3396"
             inkscape:connector-curvature="0" /></g><g
           id="g3398"
           transform="translate(10.0376,20.916)"><path
             d="m 0,0 c 0,-0.764 -0.618,-1.38 -1.38,-1.38 -0.762,0 -1.378,0.616 -1.378,1.38 0,0.76 0.616,1.379 1.378,1.379 C -0.618,1.379 0,0.76 0,0 Z"
             style="fill:none;stroke:#ffffff;stroke-width:0.75;stroke-linecap:butt;stroke-linejoin:miter;stroke-miterlimit:4;stroke-dasharray:none;stroke-opacity:1"
             id="path3400"
             inkscape:connector-curvature="0" /></g><g
           id="g3402"
           transform="translate(5.4746,14.0811)"><path
             d="m 0,0 c 0,-0.544 -0.444,-0.987 -0.99,-0.987 -0.545,0 -0.988,0.443 -0.988,0.987 0,0.546 0.443,0.987 0.988,0.987 C -0.444,0.987 0,0.546 0,0"
             style="fill:#ffffff;fill-opacity:1;fill-rule:nonzero;stroke:none"
             id="path3404"
             inkscape:connector-curvature="0" /></g><g
           id="g3406"
           transform="translate(5.4746,14.0811)"><path
             d="m 0,0 c 0,-0.544 -0.444,-0.987 -0.99,-0.987 -0.545,0 -0.988,0.443 -0.988,0.987 0,0.546 0.443,0.987 0.988,0.987 C -0.444,0.987 0,0.546 0,0 Z"
             style="fill:none;stroke:#ffffff;stroke-width:0.75;stroke-linecap:butt;stroke-linejoin:miter;stroke-miterlimit:4;stroke-dasharray:none;stroke-opacity:1"
             id="path3408"
             inkscape:connector-curvature="0" /></g><g
           id="g3410"
           transform="translate(13.7495,13.957)"><path
             d="m 0,0 c 0,-0.544 -0.443,-0.987 -0.988,-0.987 -0.544,0 -0.99,0.443 -0.99,0.987 0,0.547 0.446,0.989 0.99,0.989 C -0.443,0.989 0,0.547 0,0"
             style="fill:#ffffff;fill-opacity:1;fill-rule:nonzero;stroke:none"
             id="path3412"
             inkscape:connector-curvature="0" /></g><g
           id="g3414"
           transform="translate(13.7495,13.957)"><path
             d="m 0,0 c 0,-0.544 -0.443,-0.987 -0.988,-0.987 -0.544,0 -0.99,0.443 -0.99,0.987 0,0.547 0.446,0.989 0.99,0.989 C -0.443,0.989 0,0.547 0,0 Z"
             style="fill:none;stroke:#ffffff;stroke-width:0.75;stroke-linecap:butt;stroke-linejoin:miter;stroke-miterlimit:4;stroke-dasharray:none;stroke-opacity:1"
             id="path3416"
             inkscape:connector-curvature="0" /></g><g
           id="g3418"
           transform="translate(7.0981,27.0117)"><path
             d="M 0.84993452,-0.35413938 -1.66,-0.21 c -0.314,0 -1.721,-1.036 -1.721,-1.826 l 0,-1.455 4.8683854,1.0586558 z"
             style="fill:#ffffff;fill-opacity:1;fill-rule:nonzero;stroke:none"
             id="path3420"
             inkscape:connector-curvature="0"
             sodipodi:nodetypes="ccsccc" /></g><g
           id="g3422"
           transform="translate(7.0981,27.0117)"><path
             d="M 1.2040739,0.07082788 -1.66,-0.21 c -0.314,0 -1.721,-1.036 -1.721,-1.826 l 0,-1.455 4.9034768,0.9169139 z"
             style="fill:none;stroke:#ffffff;stroke-width:0.75;stroke-linecap:butt;stroke-linejoin:miter;stroke-miterlimit:4;stroke-dasharray:none;stroke-opacity:1"
             id="path3424"
             inkscape:connector-curvature="0"
             sodipodi:nodetypes="ccsccc" /></g><g
           id="g3426"
           transform="translate(13.5981,23.5225)"><path
             d="m 0,0 0,1.453 c 0,0.765 -1.406,1.826 -1.722,1.826 l -3.2174821,0.07743 -0.4247092,-1.9463287 z"
             style="fill:#ffffff;fill-opacity:1;fill-rule:nonzero;stroke:none"
             id="path3428"
             inkscape:connector-curvature="0"
             sodipodi:nodetypes="cscccc" /></g><g
           id="g3430"
           transform="translate(13.5981,23.5225)"><path
             d="m 0,0 0,1.453 c 0,0.765 -1.406,1.826 -1.722,1.826 l -2.9350739,0.2898279 c 0.070828,-0.9201612 -3.0196508,-1.2780455 1.29e-4,-2.68969879 z"
             style="fill:none;stroke:#ffffff;stroke-width:0.75;stroke-linecap:butt;stroke-linejoin:miter;stroke-miterlimit:4;stroke-dasharray:none;stroke-opacity:1"
             id="path3432"
             inkscape:connector-curvature="0"
             sodipodi:nodetypes="cscccc" /></g><g
           id="g3434"
           transform="translate(44.667,4.8164)"><path
             d="m 1.308,25.879 5.271,0 -1.059,-2.924 -3.153,0 z m 6.833,-22.136 0.457,0 c 1.215,0 2.201,0.986 2.201,2.201 l -0.551,14.81 c 0,1.217 -0.984,2.201 -2.2,2.201 l -1.681,0 1.06,2.924 1.27,0 0,-1.066 0.894,0 0,1.789 -11.383,0 0,-1.789 0.757,0 0,1.066 1.494,0 1.061,-2.924 -1.68,0 c -1.215,0 -2.201,-0.984 -2.201,-2.201 L -2.912,5.944 c 0,-1.215 0.986,-2.201 2.201,-2.201 l 0.457,0 -2.925,-5.049 2.213,-0.51 L 1.5001806,3.129189 6.3868194,3.0583611 8.852,-1.816 l 2.213,0.51 z"
             style="fill:#000000;fill-opacity:1;fill-rule:nonzero;stroke:none"
             id="path3436"
             inkscape:connector-curvature="0"
             sodipodi:nodetypes="ccccccsccsccccccccccccsccscccccccc" /></g><g
           id="g3438"
           transform="translate(46.1865,11.1787)"><path
             d="m 0,0 c 0,-0.692 -0.563,-1.254 -1.256,-1.254 -0.693,0 -1.256,0.562 -1.256,1.254 0,0.693 0.563,1.256 1.256,1.256 C -0.563,1.256 0,0.693 0,0"
             style="fill:#ffffff;fill-opacity:1;fill-rule:nonzero;stroke:none"
             id="path3440"
             inkscape:connector-curvature="0" /></g><g
           id="g3442"
           transform="translate(53.5459,11.1104)"><path
             d="m 0,0 c 0,-0.693 -0.563,-1.255 -1.256,-1.255 -0.693,0 -1.256,0.562 -1.256,1.255 0,0.693 0.563,1.256 1.256,1.256 C -0.563,1.256 0,0.693 0,0"
             style="fill:#ffffff;fill-opacity:1;fill-rule:nonzero;stroke:none"
             id="path3444"
             inkscape:connector-curvature="0" /></g><g
           id="g3446"
           transform="translate(54.2822,15.0928)"><path
             d="m 0,0 c 0,-0.588 -0.571,-1.065 -1.616,-1.065 l -8.001,0 c -1.045,0 -1.727,0.477 -1.727,1.065 l 0.309,7.177 c 0,0.588 0.847,1.066 1.89,1.066 l 7.056,0 c 1.044,0 1.892,-0.478 1.892,-1.066 L 0,0 Z"
             style="fill:#ffffff;fill-opacity:1;fill-rule:nonzero;stroke:none"
             id="path3448"
             inkscape:connector-curvature="0" /></g><path
           d="m 53.253,24.265 -9.285,0 0,1.788 9.285,0 0,-1.788 z"
           style="fill:#ffffff;fill-opacity:1;fill-rule:nonzero;stroke:none"
           id="path3450"
           inkscape:connector-curvature="0" /></g></g><rect
       style="fill:#0000ff;fill-opacity:0;fill-rule:evenodd;stroke:#000000;stroke-width:0.88692874;stroke-linecap:butt;stroke-linejoin:miter;stroke-miterlimit:4;stroke-dasharray:none;stroke-opacity:1"
       id="rect3452"
       width="56.113071"
       height="56.113071"
       x="0.44346437"
       y="-56.556538"
       transform="scale(1,-1)"
       rx="8.73244"
       inkscape:export-filename="C:\Users\Kevin\Linux\pebble-dev\onebusaway\resources\images\rect3452.png"
       inkscape:export-xdpi="31.578947"
       inkscape:export-ydpi="31.578947" /><rect
       style="fill:#0000ff;fill-opacity:0;stroke-width:1.11800003;stroke-miterlimit:4;stroke-dasharray:none"
       id="rect4256"
       width="4.791719"
       height="2.646173"
       x="6.5081558"
       y="-26.96236"
       transform="scale(1,-1)"
       rx="6.9859519" /><text
       xml:space="preserve"
       style="font-style:normal;font-weight:normal;font-size:32px;line-height:125%;font-family:sans-serif;letter-spacing:0px;word-spacing:0px;fill:#000000;fill-opacity:1;stroke:none;stroke-width:1px;stroke-linecap:butt;stroke-linejoin:miter;stroke-opacity:1"
       x="6.7286482"
       y="-26.206314"
       id="text4262"
       sodipodi:linespacing="125%"
       transform="scale(1,-1)"><tspan
         sodipodi:role="line"
         id="tspan4264"
         x="6.7286482"
         y="-26.206314"></tspan></text>
<path
       d="m 5.6968767,14.086688 c 0,-0.764 -0.618,-1.38 -1.38,-1.38 -0.762,0 -1.378,0.616 -1.378,1.38 0,0.76 0.616,1.379 1.378,1.379 0.762,0 1.38,-0.619 1.38,-1.379 z"
       style="fill:none;stroke:#ffffff;stroke-width:0.75;stroke-linecap:butt;stroke-linejoin:miter;stroke-miterlimit:4;stroke-dasharray:none;stroke-opacity:1"
       id="path3400-2"
       inkscape:connector-curvature="0" /><path
       d="m 14.049491,14.12208 c 0,-0.764 -0.618,-1.38 -1.38,-1.38 -0.762,0 -1.378,0.616 -1.378,1.38 0,0.76 0.616,1.379 1.378,1.379 0.762,0 1.38,-0.619 1.38,-1.379 z"
       style="fill:none;stroke:#ffffff;stroke-width:0.75;stroke-linecap:butt;stroke-linejoin:miter;stroke-miterlimit:4;stroke-dasharray:none;stroke-opacity:1"
       id="path3400-1"
       inkscape:connector-curvature="0" /></g></svg>